<svg width="25" height="31" viewBox="0 0 25 31" fill="none" xmlns="http://www.w3.org/2000/svg">
<path d="M14.2633 1.8999C14.2633 0.986609 13.5229 0.246238 12.6096 0.246238C11.6963 0.246239 10.956 0.986609 10.956 1.8999L14.2633 1.8999ZM11.4403 30.3547C12.0861 31.0005 13.1331 31.0005 13.7789 30.3547L24.3028 19.8308C24.9486 19.185 24.9486 18.138 24.3028 17.4922C23.657 16.8464 22.61 16.8464 21.9642 17.4922L12.6096 26.8467L3.25508 17.4922C2.60929 16.8464 1.56225 16.8464 0.91645 17.4922C0.270654 18.138 0.270654 19.185 0.91645 19.8308L11.4403 30.3547ZM10.956 1.8999L10.956 29.1854L14.2633 29.1854L14.2633 1.8999L10.956 1.8999Z" fill="#4C58C6"/>
</svg>
