<svg width="32" height="25" viewBox="0 0 32 25" fill="none" xmlns="http://www.w3.org/2000/svg">
<path d="M27.0894 2.7786C25.0494 1.89097 22.8627 1.23489 20.576 0.861827C20.5557 0.858055 20.5346 0.860486 20.5157 0.868784C20.4968 0.877081 20.4811 0.890834 20.4707 0.908139C20.1907 1.38283 19.8787 2.0016 19.66 2.49044C17.2348 2.14084 14.7692 2.14084 12.344 2.49044C12.1005 1.94868 11.8258 1.42042 11.5214 0.908139C11.511 0.890621 11.4954 0.876557 11.4766 0.867822C11.4578 0.859088 11.4367 0.856099 11.416 0.859254C9.1307 1.23232 6.94403 1.88839 4.9027 2.77731C4.88514 2.78442 4.87025 2.79654 4.86003 2.81205C0.710697 8.69743 -0.426636 14.4375 0.13203 20.1054C0.133585 20.1193 0.138051 20.1327 0.145157 20.1449C0.152263 20.1571 0.16186 20.1677 0.173364 20.1762C2.59522 21.8774 5.29648 23.1733 8.16403 24.0097C8.18402 24.0157 8.2054 24.0156 8.22538 24.0097C8.24536 24.0037 8.26301 23.9921 8.27603 23.9763C8.89309 23.1801 9.43989 22.3354 9.9107 21.451C9.91723 21.4389 9.921 21.4256 9.92174 21.412C9.92248 21.3984 9.92019 21.3848 9.915 21.3721C9.90982 21.3594 9.90187 21.348 9.8917 21.3385C9.88152 21.329 9.86936 21.3218 9.85603 21.3172C8.9947 21.0043 8.16014 20.6266 7.36003 20.1878C7.34565 20.1798 7.33354 20.1686 7.32477 20.1551C7.31601 20.1415 7.31087 20.1261 7.30981 20.1101C7.30875 20.0942 7.31181 20.0783 7.31872 20.0637C7.32562 20.0492 7.33615 20.0366 7.34936 20.027C7.51736 19.9073 7.68536 19.7825 7.84536 19.6578C7.85977 19.6465 7.87711 19.6394 7.89548 19.6371C7.91384 19.6348 7.93249 19.6375 7.94936 19.6449C13.1854 21.9141 18.856 21.9141 24.0307 19.6449C24.0476 19.6371 24.0665 19.6341 24.0851 19.6361C24.1037 19.6382 24.1214 19.6452 24.136 19.6565C24.296 19.7825 24.4627 19.9073 24.632 20.027C24.6454 20.0364 24.6561 20.0488 24.6632 20.0632C24.6703 20.0776 24.6736 20.0935 24.6728 20.1094C24.6721 20.1254 24.6672 20.1409 24.6587 20.1545C24.6501 20.1682 24.6382 20.1796 24.624 20.1878C23.8267 20.6303 22.9974 21.0046 22.1267 21.316C22.1133 21.3206 22.1011 21.328 22.091 21.3376C22.0808 21.3472 22.0728 21.3588 22.0677 21.3716C22.0625 21.3843 22.0602 21.398 22.061 21.4117C22.0617 21.4255 22.0655 21.4388 22.072 21.451C22.552 22.3348 23.1014 23.1761 23.7054 23.975C23.7179 23.9914 23.7354 24.0036 23.7555 24.0101C23.7755 24.0165 23.7971 24.0169 23.8174 24.011C26.6898 23.1769 29.3955 21.8804 31.82 20.1762C31.8319 20.1682 31.8418 20.1579 31.8491 20.1459C31.8565 20.1339 31.8611 20.1206 31.8627 20.1067C32.5294 13.5537 30.7454 7.85997 27.1307 2.81462C27.1218 2.79822 27.1072 2.78544 27.0894 2.7786ZM10.6934 16.654C9.11736 16.654 7.81736 15.2788 7.81736 13.5923C7.81736 11.9045 9.09203 10.5306 10.6934 10.5306C12.3067 10.5306 13.5947 11.9161 13.5694 13.5923C13.5694 15.2801 12.2947 16.654 10.6934 16.654ZM21.3267 16.654C19.7494 16.654 18.4507 15.2788 18.4507 13.5923C18.4507 11.9045 19.724 10.5306 21.3267 10.5306C22.94 10.5306 24.228 11.9161 24.2027 13.5923C24.2027 15.2801 22.9414 16.654 21.3267 16.654Z" fill="#4C58C6"/>
</svg>
