<svg width="68" height="53" viewBox="0 0 68 53" fill="none" xmlns="http://www.w3.org/2000/svg">
<path d="M66.4 2H2V44H66.4V2Z" stroke="#4C58C6" stroke-width="3" stroke-linecap="round" stroke-linejoin="round"/>
<path d="M30.0002 44V51" stroke="#4C58C6" stroke-width="3" stroke-linecap="round" stroke-linejoin="round"/>
<path d="M38.3999 44V51" stroke="#4C58C6" stroke-width="3" stroke-linecap="round" stroke-linejoin="round"/>
<path d="M22.9998 51H45.3997" stroke="#4C58C6" stroke-width="3" stroke-linecap="round" stroke-linejoin="round"/>
<path d="M34.1997 6.19971V39.7997" stroke="#4C58C6" stroke-width="3" stroke-linecap="round" stroke-linejoin="round"/>
<path d="M7.6001 22.9998H60.8001" stroke="#4C58C6" stroke-width="3" stroke-linecap="round" stroke-linejoin="round"/>
<path d="M18.8001 6.19971C16.4813 6.19971 14.6001 7.95321 14.6001 10.1162V10.6832C14.6001 12.8462 16.4813 14.5997 18.8001 14.5997C21.1188 14.5997 23.0001 12.8462 23.0001 10.6832V10.1162C23.0001 7.95321 21.1188 6.19971 18.8001 6.19971Z" stroke="#4C58C6" stroke-width="3" stroke-linecap="round" stroke-linejoin="round"/>
<path d="M25.7996 18.8001C25.7996 16.4796 22.6653 14.6001 18.7996 14.6001C14.9338 14.6001 11.7996 16.4796 11.7996 18.8001" stroke="#4C58C6" stroke-width="3" stroke-linecap="round" stroke-linejoin="round"/>
<path d="M49.5999 6.19971C47.2812 6.19971 45.3999 7.95321 45.3999 10.1162V10.6832C45.3999 12.8462 47.2812 14.5997 49.5999 14.5997C51.9187 14.5997 53.7999 12.8462 53.7999 10.6832V10.1162C53.7999 7.95321 51.9187 6.19971 49.5999 6.19971Z" stroke="#4C58C6" stroke-width="3" stroke-linecap="round" stroke-linejoin="round"/>
<path d="M56.5999 18.8001C56.5999 16.4796 53.4656 14.6001 49.5999 14.6001C45.7341 14.6001 42.5999 16.4796 42.5999 18.8001" stroke="#4C58C6" stroke-width="3" stroke-linecap="round" stroke-linejoin="round"/>
<path d="M18.8001 27.2C16.4813 27.2 14.6001 28.9535 14.6001 31.1165V31.6834C14.6001 33.8464 16.4813 35.5999 18.8001 35.5999C21.1188 35.5999 23.0001 33.8464 23.0001 31.6834V31.1165C23.0001 28.9535 21.1188 27.2 18.8001 27.2Z" stroke="#4C58C6" stroke-width="3" stroke-linecap="round" stroke-linejoin="round"/>
<path d="M25.7996 39.8001C25.7996 37.4796 22.6653 35.6001 18.7996 35.6001C14.9338 35.6001 11.7996 37.4796 11.7996 39.8001" stroke="#4C58C6" stroke-width="3" stroke-linecap="round" stroke-linejoin="round"/>
<path d="M49.5999 27.2C47.2812 27.2 45.3999 28.9535 45.3999 31.1165V31.6834C45.3999 33.8464 47.2812 35.5999 49.5999 35.5999C51.9187 35.5999 53.7999 33.8464 53.7999 31.6834V31.1165C53.7999 28.9535 51.9187 27.2 49.5999 27.2Z" stroke="#4C58C6" stroke-width="3" stroke-linecap="round" stroke-linejoin="round"/>
<path d="M56.5999 39.8001C56.5999 37.4796 53.4656 35.6001 49.5999 35.6001C45.7341 35.6001 42.5999 37.4796 42.5999 39.8001" stroke="#4C58C6" stroke-width="3" stroke-linecap="round" stroke-linejoin="round"/>
</svg>
