<svg width="68" height="53" viewBox="0 0 68 53" fill="none" xmlns="http://www.w3.org/2000/svg">
<path d="M45.6366 10.7273C63.7293 10.7273 66.0002 17.8909 66.0002 26.7273C66.0002 33.1273 64.8039 38.6473 57.273 41.2055V49.0837C57.273 50.4218 55.6202 51.0491 54.7311 50.0491L48.173 42.6709C47.3602 42.7055 46.5239 42.7273 45.6366 42.7273C32.8093 42.7273 27.9348 39.1273 26.1839 33.8818C25.4657 31.7291 25.2729 29.2982 25.2729 26.7273C25.2729 18.5564 27.2148 11.8146 41.8148 10.8473C43.002 10.7691 44.2748 10.7273 45.6366 10.7273Z" stroke="#4C58C6" stroke-width="3" stroke-miterlimit="10"/>
<path d="M31.4091 33.1891C41.2709 31.0763 42.7272 25.0745 42.7272 18C42.7272 17.2436 42.7109 16.5 42.6691 15.7709" stroke="#4C58C6" stroke-width="3" stroke-miterlimit="10" stroke-linecap="round"/>
<path d="M41.8164 10.8455C40.0655 5.6 35.1909 2 22.3636 2C4.27091 2 2 9.16364 2 18C2 24.4 3.19636 29.92 10.7273 32.4782V40.3564C10.7273 41.6945 12.38 42.3218 13.2691 41.3218L19.8273 33.9436C20.4982 33.9709 21.1873 33.9909 21.9073 33.9982" stroke="#4C58C6" stroke-width="3" stroke-miterlimit="10" stroke-linecap="round"/>
</svg>
