<svg width="68" height="60" viewBox="0 0 68 60" fill="none" xmlns="http://www.w3.org/2000/svg">
<path d="M14.5218 40.9549C11.2331 40.9549 8.95654 38.2853 8.95654 34.9931V33.0053C8.95654 29.7131 11.2331 27.0436 14.5218 27.0436C17.8105 27.0436 20.087 29.7131 20.087 33.0053V34.9931C20.087 38.2853 17.8105 40.9549 14.5218 40.9549Z" stroke="#4C58C6" stroke-width="3.3" stroke-miterlimit="10"/>
<path d="M2 57.6505L4.78261 46.52C5.62261 43.0418 7.28695 40.9548 10.3478 40.9548H13.1304L22.8435 52.0853H31.1913C31.1913 52.0853 31.8139 57.6505 27.0174 57.6505H18.6956L11.7391 50.694" stroke="#4C58C6" stroke-width="3.3" stroke-miterlimit="10" stroke-linecap="round"/>
<path d="M24.2609 47.9112L29.8261 38.1721H54.8695L46.5217 53.4765H34" stroke="#4C58C6" stroke-width="3.3" stroke-linejoin="round"/>
<path d="M13.1304 57.6504H57.6521" stroke="#4C58C6" stroke-width="3.3" stroke-linecap="round" stroke-linejoin="round"/>
<path d="M53.4784 15.9113C56.7671 15.9113 59.0436 13.2417 59.0436 9.94956V7.96174C59.0436 4.66956 56.7671 2 53.4784 2C50.1897 2 47.9132 4.66956 47.9132 7.96174V9.94956C47.9132 13.2417 50.1897 15.9113 53.4784 15.9113Z" stroke="#4C58C6" stroke-width="3.3" stroke-miterlimit="10"/>
<path d="M65.9998 32.6069L63.2172 21.4765C62.3772 17.9982 60.7129 15.9113 57.652 15.9113H54.8694L45.1564 27.0417H36.8086C36.8086 27.0417 36.1859 32.6069 40.9825 32.6069H49.3042L56.2607 25.6504" stroke="#4C58C6" stroke-width="3.3" stroke-miterlimit="10" stroke-linecap="round"/>
<path d="M45.1303 22.8678L39.5651 13.1287H17.3042L25.652 28.433H33.9998" stroke="#4C58C6" stroke-width="3.3" stroke-linejoin="round"/>
</svg>
