<svg width="50" height="53" viewBox="0 0 50 53" fill="none" xmlns="http://www.w3.org/2000/svg">
<path d="M31.628 29.3489H35.0466V37.1291C35.0466 38.243 36.481 38.6959 37.1191 37.7829L43.0233 29.3489H45.3024C46.5616 29.3489 47.5815 28.329 47.5815 27.0698V4.27622C47.5815 3.01846 46.563 2 45.3052 2H4.27622C3.01846 2 2 3.01846 2 4.27622V27.0698C2 28.329 3.01989 29.3489 4.27907 29.3489H6.55815" stroke="#4C58C6" stroke-width="3" stroke-miterlimit="10"/>
<path d="M19.093 16.8141H21.3721" stroke="#4C58C6" stroke-width="3" stroke-miterlimit="10"/>
<path d="M23.6514 16.8141H25.9304" stroke="#4C58C6" stroke-width="3" stroke-miterlimit="10"/>
<path d="M28.2094 16.8141H30.4884" stroke="#4C58C6" stroke-width="3" stroke-miterlimit="10"/>
<path d="M24.2209 37.3256C26.5043 37.3256 28.2093 35.3584 28.2093 32.9312V31.4655C28.2093 29.0383 26.5043 27.0712 24.2209 27.0712C21.9376 27.0712 20.2325 29.0383 20.2325 31.4655V32.9312C20.2325 35.3584 21.9376 37.3256 24.2209 37.3256Z" stroke="#4C58C6" stroke-width="3" stroke-miterlimit="10"/>
<path d="M17.9534 50.9999V43.0231L11.1162 36.1859L9.97668 30.4882C9.97668 28.041 10.904 25.9301 13.3953 25.9301L15.6744 32.7673L20.2325 37.3254H25.9302C29.0767 37.3254 31.6279 39.8766 31.6279 43.0231V50.9999" stroke="#4C58C6" stroke-width="3" stroke-linecap="round" stroke-linejoin="round"/>
</svg>
