<svg width="68" height="63" viewBox="0 0 68 63" fill="none" xmlns="http://www.w3.org/2000/svg">
<path d="M3.39136 33.9998H10.4366C12.3913 33.9998 14.2731 34.7528 15.6887 36.1006L21.2905 41.4363C21.2905 41.4363 25.0139 42.1771 26.8209 42.4641C28.5791 42.7424 29.8261 43.8989 29.8261 45.8258C29.8261 47.7528 28.2852 49.3041 26.1548 49.3041H20.4157L12.7061 45.1302" stroke="#4C58C6" stroke-width="3.3" stroke-linecap="round" stroke-linejoin="round"/>
<path d="M14.7839 46.2555L16.2413 56.2607" stroke="#4C58C6" stroke-width="3.3" stroke-linecap="round" stroke-linejoin="round"/>
<path d="M11.7391 60.4345L8.21738 45.038C8.02608 44.2745 7.34086 43.7389 6.55478 43.7389H2" stroke="#4C58C6" stroke-width="3.3" stroke-linecap="round" stroke-linejoin="round"/>
<path d="M8.95657 15.9127C5.88353 15.9127 3.39136 18.4049 3.39136 21.4779V24.2605C3.39136 27.3336 5.88353 29.8257 8.95657 29.8257C12.0296 29.8257 14.5218 27.3336 14.5218 24.2605V21.4779C14.5218 18.4049 12.0296 15.9127 8.95657 15.9127Z" stroke="#4C58C6" stroke-width="3.3" stroke-linecap="round" stroke-linejoin="round"/>
<path d="M64.6086 33.9998H57.5634C55.6086 33.9998 53.7269 34.7528 52.3112 36.1006L46.7095 41.4363C46.7095 41.4363 42.986 42.1771 41.179 42.4641C39.4208 42.7424 38.1738 43.8989 38.1738 45.8258C38.1738 47.7528 39.7147 49.3041 41.8451 49.3041H47.5842L55.2938 45.1302" stroke="#4C58C6" stroke-width="3.3" stroke-linecap="round" stroke-linejoin="round"/>
<path d="M53.2158 46.2555L51.7584 56.2607" stroke="#4C58C6" stroke-width="3.3" stroke-linecap="round" stroke-linejoin="round"/>
<path d="M56.261 60.4345L59.7827 45.038C59.974 44.2745 60.6592 43.7389 61.4453 43.7389H66.0001" stroke="#4C58C6" stroke-width="3.3" stroke-linecap="round" stroke-linejoin="round"/>
<path d="M59.0434 15.9127C62.1164 15.9127 64.6086 18.4049 64.6086 21.4779V24.2605C64.6086 27.3336 62.1164 29.8257 59.0434 29.8257C55.9703 29.8257 53.4781 27.3336 53.4781 24.2605V21.4779C53.4781 18.4049 55.9703 15.9127 59.0434 15.9127Z" stroke="#4C58C6" stroke-width="3.3" stroke-linecap="round" stroke-linejoin="round"/>
<path d="M34.0001 21.4779C37.1862 21.4779 39.5654 18.8084 39.5654 15.5162V13.5284C39.5654 10.2362 37.1862 7.56665 34.0001 7.56665C30.8141 7.56665 28.4349 10.2362 28.4349 13.5284V15.5162C28.4349 18.8084 30.8141 21.4779 34.0001 21.4779Z" stroke="#4C58C6" stroke-width="3.3" stroke-linecap="round" stroke-linejoin="round"/>
<path d="M42.3477 28.4349V27.0436C42.3477 23.2297 36.9703 21.4784 33.9999 21.4784C31.0295 21.4784 25.6521 23.1967 25.6521 27.0106V28.4349" stroke="#4C58C6" stroke-width="3.3" stroke-linecap="round" stroke-linejoin="round"/>
<path d="M13.1305 11.7391V2H54.8696V11.7391" stroke="#4C58C6" stroke-width="3.3" stroke-linecap="round" stroke-linejoin="round"/>
<path d="M20.087 33.9998H47.9131" stroke="#4C58C6" stroke-width="3.3" stroke-linecap="round" stroke-linejoin="round"/>
</svg>
