<svg width="28" height="20" viewBox="0 0 28 20" fill="none" xmlns="http://www.w3.org/2000/svg">
<path d="M27.2159 17.2V2.79999C27.2159 1.47199 26.1439 0.399994 24.8159 0.399994H2.39988C1.07188 0.399994 -0.00012207 1.47199 -0.00012207 2.79999V17.2C-0.00012207 18.528 1.07188 19.6 2.39988 19.6H24.8159C26.1439 19.6 27.2159 18.528 27.2159 17.2ZM25.1199 2.62399C25.6479 3.15199 25.3599 3.69599 25.0719 3.96799L18.5759 9.91999L24.8159 16.416C25.0079 16.64 25.1359 16.992 24.9119 17.232C24.7039 17.488 24.2239 17.472 24.0159 17.312L17.0239 11.344L13.5999 14.464L10.1919 11.344L3.19988 17.312C2.99188 17.472 2.51188 17.488 2.30388 17.232C2.07988 16.992 2.20788 16.64 2.39988 16.416L8.63988 9.91999L2.14388 3.96799C1.85588 3.69599 1.56788 3.15199 2.09588 2.62399C2.62388 2.09599 3.16788 2.35199 3.61588 2.73599L13.5999 10.8L23.5999 2.73599C24.0479 2.35199 24.5919 2.09599 25.1199 2.62399Z" fill="#4C58C6"/>
</svg>
