<svg width="420" height="151" viewBox="0 0 420 151" fill="none" xmlns="http://www.w3.org/2000/svg">
<path d="M0 41.1574C0.795604 39.5755 25.2489 15.7999 78.0415 23.0014C128.671 29.9051 116.257 33.0888 140.848 27.7804C142.242 27.4759 143.623 27.1185 145.004 26.7676C146.385 26.4168 149.442 26.1786 156.057 27.8532C165.512 30.2426 176.545 31.0502 180.484 28.6739C180.425 29.9977 176.539 99.0938 85.8858 53.952C33.7376 27.9855 0 41.1574 0 41.1574Z" fill="#E4E4F1"/>
<path d="M237.057 52.6611C237.057 52.6611 189.249 102.721 237.438 126.589C272.583 143.991 303.395 134.605 317.512 128.244C321.285 126.526 324.894 124.466 328.295 122.088C338.677 114.893 378.721 89.1982 419.441 89.2445C424.899 89.2445 390.444 64.8137 323.909 94.6324C294.058 108.009 223.354 103.932 237.057 52.6611Z" fill="#E4E4F1"/>
<path d="M265.14 32.5662C265.14 32.5662 274.911 34.5519 271.985 28.6345C269.059 22.7171 261.241 19.765 259.295 14.8471C257.348 9.92914 239.766 -8.79611 215.313 4.95162C210.335 7.75148 196.718 24.6102 187.914 27.5556C187.914 27.5556 178.084 77.7279 144.82 104.264C113.804 129.012 52.4836 133.824 36.2822 129.727C24.552 126.762 52.5691 141.337 64.615 144.521C75.0564 147.281 115.021 165.867 187.809 124.002C209.961 111.26 207.39 96.4664 210.335 87.5969C213.281 78.7274 229.949 31.5403 265.14 32.5662Z" fill="#E4E4F1"/>
</svg>
